<svg width="60" height="60" viewBox="0 0 60 60" fill="none" xmlns="http://www.w3.org/2000/svg">
<g clip-path="url(#clip0_5_966)">
<path d="M59.7922 22.062L48.3681 4.926C48.1384 4.58206 47.7513 4.37463 47.3373 4.37463H12.6628C12.2478 4.37463 11.8612 4.58276 11.6318 4.92635L0.207949 22.062C-0.0992009 22.5227 -0.0701383 23.1514 0.32209 23.5829L12.1761 36.6224H8.67759C8.17544 36.6224 7.69673 36.8869 7.43458 37.3401L2.80495 45.3588C2.54936 45.8017 2.54784 46.3483 2.80507 46.794L7.43493 54.8133C7.69298 55.2593 8.16817 55.5303 8.67759 55.5303H11.9058C12.3913 55.5303 12.7847 55.1368 12.7847 54.6514C12.7847 54.166 12.3913 53.7725 11.9058 53.7725H9.87865L11.3475 51.2283H15.2666L16.7356 53.7725H16.0072C15.5217 53.7725 15.1283 54.166 15.1283 54.6514C15.1283 55.1368 15.5217 55.5303 16.0072 55.5303H17.9366C18.4412 55.5303 18.9186 55.2639 19.1796 54.8127L22.8823 48.3995L29.0831 55.2201C29.5745 55.7606 30.4251 55.7609 30.9168 55.2201L41.12 43.9967L43.5509 53.0692C43.6542 53.4518 43.9651 53.7499 44.36 53.8303L52.4965 55.4953C52.8109 55.5599 53.1528 55.4794 53.4108 55.2506L59.6251 49.7402C59.9333 49.4669 60.0459 49.0491 59.9449 48.6752L55.0802 30.5202C54.9796 30.1404 54.6716 29.8383 54.2703 29.7557L54.0982 29.7205L59.6776 23.5831C60.0713 23.1503 60.0984 22.5213 59.7922 22.062ZM21.235 20.8183L13.8921 6.13234H28.578L21.235 20.8183ZM30.0001 7.21879L37.3429 21.9047H22.6572L30.0001 7.21879ZM37.6145 23.6625L30.0001 51.5818L22.3857 23.6625H37.6145ZM38.7651 20.8183L31.4221 6.13245H46.108L38.7651 20.8183ZM47.639 7.00117L57.5746 21.9047H40.1872L47.639 7.00117ZM16.7357 38.3801L15.2667 40.9244H11.3475L9.87865 38.3801H16.7357ZM18.7485 45.1973L16.7889 41.8033L18.2578 39.259L21.6863 45.1974H18.7485V45.1973ZM15.2666 49.4703H11.3475L9.38799 46.0762L11.3475 42.6822H15.2666L17.2262 46.0762L15.2666 49.4703ZM8.35638 39.259L9.82521 41.8033L7.86571 45.1973H4.92793L8.35638 39.259ZM4.92781 46.9551H7.86571L9.82521 50.3491L8.35638 52.8934L4.92781 46.9551ZM18.2579 52.8935L16.789 50.3492L18.7486 46.9552H21.6864L18.2579 52.8935ZM23.8094 46.7939C24.0653 46.3502 24.0657 45.803 23.8093 45.3587L19.1794 37.3394C18.9229 36.896 18.4491 36.6223 17.9367 36.6223H14.5519L2.77003 23.6625H13.3071C13.7926 23.6625 14.186 23.269 14.186 22.7836C14.186 22.2982 13.7926 21.9047 13.3071 21.9047H2.4255L12.3612 7.00117L19.8129 21.9047H17.4086C16.9231 21.9047 16.5297 22.2982 16.5297 22.7836C16.5297 23.269 16.9231 23.6625 17.4086 23.6625H20.5636L28.1895 51.6239L23.805 46.801L23.8094 46.7939ZM42.4048 41.999C42.4026 41.9906 42.4004 41.9822 42.3981 41.9739L40.9042 36.3986L43.4099 37.8453L46.1748 48.1643L44.7281 50.67L42.4048 41.999ZM52.8317 31.2552L51.0685 34.3091L48.0549 33.6925L47.0868 30.0796C48.1287 30.2927 52.174 31.1207 52.8317 31.2552ZM45.3888 30.5345L46.3569 34.1474L44.0554 36.1882L41.0014 34.425L45.3888 30.5345ZM45.7992 52.3304L47.5623 49.2765L50.5759 49.8931L51.5439 53.5059L45.7992 52.3304ZM54.5754 47.3974L57.6293 49.1606L53.2419 53.0511L52.2739 49.4382L54.5754 47.3974ZM57.7266 47.1869L55.221 45.7403L54.9395 44.6899C54.814 44.2211 54.3319 43.943 53.863 44.0684C53.3942 44.194 53.116 44.676 53.2416 45.1449L53.4767 46.0223L51.03 48.1918L47.8263 47.5362L45.1541 37.5633L47.6008 35.3938L50.8044 36.0494L52.1574 41.0986C52.2829 41.5675 52.765 41.8455 53.2339 41.7202C53.7027 41.5946 53.9809 41.1126 53.8553 40.6437L52.4561 35.4214L53.9027 32.9158L57.7266 47.1869ZM46.1324 28.0901C45.817 28.026 45.4765 28.1077 45.2198 28.3351L39.0048 33.8462C38.697 34.1199 38.585 34.5367 38.6857 34.9107L40.5793 41.9783L31.8105 51.624L39.4364 23.6626H57.2301L52.0956 29.3105L46.1324 28.0901Z" fill="#45F882"/>
</g>
<defs>
<clipPath id="clip0_5_966">
<rect width="60" height="60" fill="white"/>
</clipPath>
</defs>
</svg>
