<svg width="60" height="60" viewBox="0 0 60 60" fill="none" xmlns="http://www.w3.org/2000/svg">
<path d="M51.0316 23.8807C51.517 23.8807 51.9105 23.4872 51.9105 23.0018V12.3295C51.9105 11.8515 51.5868 11.4367 51.1227 11.3205L50.141 11.0752C46.6936 10.2134 43.5041 8.6952 40.6614 6.56309L38.874 5.22258C38.5568 4.98469 38.1395 4.94695 37.7849 5.12437C37.4303 5.30168 37.21 5.65816 37.21 6.05461V6.99152C36.9716 6.67008 36.5914 6.47133 36.1748 6.47133H35.7321V0.878906C35.7321 0.393516 35.3386 0 34.8532 0C34.3678 0 33.9743 0.393516 33.9743 0.878906V6.47133H33.5316C33.1151 6.47133 32.7349 6.67008 32.4964 6.99152V6.05461C32.4964 5.65816 32.2761 5.30168 31.9215 5.12437C31.5669 4.94695 31.1495 4.98469 30.8324 5.22258L29.045 6.56297C28.2844 7.13355 27.4835 7.66922 26.6647 8.15508C26.2473 8.40281 26.1097 8.94199 26.3573 9.35941C26.6051 9.77684 27.1441 9.9143 27.5617 9.6668C28.4347 9.14871 29.2887 8.57754 30.0998 7.96922L30.7387 7.49016V29.2266C30.7387 29.335 30.6737 29.4309 30.573 29.4713L19.5538 33.8789V12.89L19.9917 12.7805C21.2461 12.4669 22.4905 12.063 23.6904 11.5804C24.1407 11.3992 24.3588 10.8872 24.1777 10.4368C23.9965 9.9866 23.4846 9.76816 23.0341 9.94957C21.9089 10.4024 20.7418 10.781 19.5654 11.0752L18.5832 11.3207C18.1198 11.4368 17.796 11.8516 17.796 12.3295V18.698C17.796 23.1438 14.9623 27.0754 10.7445 28.4812L10.1611 28.6758C8.9216 29.0889 8.08887 30.2443 8.08887 31.5507V45.9684C8.08898 53.7055 14.3835 60 22.1204 60H34.8532C44.2324 60 51.9105 52.374 51.9105 42.9427V27.1034C51.9105 26.618 51.517 26.2245 51.0316 26.2245C50.5462 26.2245 50.1527 26.618 50.1527 27.1034V33.8789L39.1335 29.4713C39.0328 29.4309 38.9678 29.335 38.9678 29.2266V7.49027L39.6067 7.96945C42.6379 10.2429 46.0387 11.8616 49.7147 12.7806L50.1526 12.8902V23.002C50.1527 23.4872 50.5462 23.8807 51.0316 23.8807ZM32.4966 12.624C32.4966 11.9849 33.0166 11.4648 33.6558 11.4648H36.0509C36.6901 11.4648 37.2101 11.9849 37.2101 12.624V19.8727C37.2101 20.5118 36.69 21.0319 36.0509 21.0319H33.6558C33.0166 21.0319 32.4966 20.5118 32.4966 19.8727V12.624ZM33.8699 8.22914H35.8365L36.3312 9.72047C36.2388 9.71168 36.1453 9.70699 36.0507 9.70699H33.6557C33.5611 9.70699 33.4676 9.71156 33.3753 9.72047L33.8699 8.22914ZM16.3181 38.9681H17.796V40.446H16.3181V38.9681ZM17.796 37.2103H16.3181V37.027C16.3181 36.3132 16.8989 35.7325 17.6126 35.7325H17.796V37.2103ZM16.3181 42.2038H17.796C17.7986 42.7961 17.788 43.1263 17.8118 43.6816H17.6126C16.8988 43.6816 16.3181 43.1009 16.3181 42.3871V42.2038ZM22.1204 58.2422C15.3527 58.2422 9.8468 52.7363 9.8468 45.9684V31.5507C9.8468 31.0021 10.1965 30.5169 10.7171 30.3434L11.3005 30.1488C14.0803 29.2222 16.3465 27.3582 17.7961 24.9773V28.8196C16.9479 29.6707 15.9729 30.3739 14.8931 30.9123L11.8971 32.4064C11.544 32.5823 11.3248 32.9367 11.3248 33.3312V44.3679C11.3248 47.4518 12.4645 50.4075 14.5339 52.6907C14.86 53.0503 15.4158 53.0776 15.7754 52.7516C16.1351 52.4256 16.1624 51.8698 15.8364 51.5101C14.0605 49.551 13.0825 47.0145 13.0825 44.3679V33.7795L15.6776 32.4854C16.4293 32.1105 17.1374 31.6666 17.7961 31.158V33.9746H17.6127C15.9296 33.9746 14.5604 35.344 14.5604 37.027V42.3872C14.5604 44.0702 15.9298 45.4396 17.6127 45.4396H17.9783C18.5217 49.1287 20.2506 52.4373 22.7641 54.9648C21.415 54.8462 20.121 54.4752 18.906 53.8573C18.4734 53.6374 17.9442 53.8096 17.7241 54.2423C17.5042 54.675 17.6766 55.2041 18.1092 55.4242C19.858 56.3134 21.7461 56.7643 23.7211 56.7643H24.868C25.638 57.3222 26.4562 57.8173 27.3151 58.2422H22.1204ZM50.1527 35.7721V42.9427C50.1527 51.3789 43.2894 58.2422 34.8532 58.2422C26.4171 58.2422 19.5538 51.3789 19.5538 42.9427V35.7721L31.2259 31.1032C31.9977 30.7945 32.4964 30.0579 32.4964 29.2264V22.5493C32.8519 22.7039 33.244 22.7897 33.6557 22.7897H36.0507C36.4624 22.7897 36.8545 22.7039 37.21 22.5493V29.2266C37.21 30.0579 37.7087 30.7945 38.4805 31.1033L50.1527 35.7721Z" fill="#45F882"/>
<path d="M34.5469 15.5094H35.1588C35.6442 15.5094 36.0377 15.1159 36.0377 14.6305C36.0377 14.1451 35.6442 13.7516 35.1588 13.7516H34.5469C34.0615 13.7516 33.668 14.1451 33.668 14.6305C33.668 15.1159 34.0615 15.5094 34.5469 15.5094Z" fill="#45F882"/>
<path d="M34.5469 18.7451H35.1588C35.6442 18.7451 36.0377 18.3516 36.0377 17.8662C36.0377 17.3808 35.6442 16.9873 35.1588 16.9873H34.5469C34.0615 16.9873 33.668 17.3808 33.668 17.8662C33.668 18.3516 34.0615 18.7451 34.5469 18.7451Z" fill="#45F882"/>
<path d="M34.8535 32.3568C33.0307 32.3568 31.5479 33.8397 31.5479 35.6624C31.5479 37.4852 33.0307 38.9681 34.8535 38.9681C36.6762 38.9681 38.1591 37.4852 38.1591 35.6624C38.1591 33.8398 36.6762 32.3568 34.8535 32.3568ZM34.8535 37.2104C34 37.2104 33.3057 36.516 33.3057 35.6626C33.3057 34.8091 34 34.1147 34.8535 34.1147C35.707 34.1147 36.4013 34.8091 36.4013 35.6626C36.4013 36.516 35.707 37.2104 34.8535 37.2104Z" fill="#45F882"/>
</svg>
