<svg width="60" height="60" viewBox="0 0 60 60" fill="none" xmlns="http://www.w3.org/2000/svg">
<g clip-path="url(#clip0_5_955)">
<path d="M59.1204 37.9698C59.6063 37.9698 60 37.5761 60 37.0902V36.4242C60 34.665 58.808 33.1382 57.1013 32.7116L54.686 32.1079C54.3578 32.0259 54.1287 31.7323 54.1287 31.3942V30.935C55.0882 30.1223 55.7265 28.9372 55.812 27.5967L56.0482 23.8954C56.1419 22.4275 55.5767 20.9476 54.4662 19.9129C52.6717 15.8751 49.8749 12.31 46.3682 9.5931C42.8461 6.86425 38.6792 5.05225 34.2974 4.34075C33.245 3.13681 31.6987 2.375 29.9778 2.375C28.257 2.375 26.7106 3.13681 25.6582 4.34075C22.6136 4.83412 19.703 5.84303 17.0017 7.34167C16.5769 7.5774 16.4236 8.11275 16.6594 8.53752C16.8938 8.96018 17.4283 9.1165 17.8552 8.87996C19.9543 7.71543 22.1887 6.86754 24.5178 6.35012C24.0273 7.86659 24.1759 9.59885 25.0635 11.0684C21.4935 11.9528 18.2515 13.7846 15.618 16.4183C15.2745 16.7618 15.2745 17.3187 15.618 17.6621L16.5212 18.5653H9.83015L9.81479 11.8588L11.0387 13.0827C11.3822 13.4261 11.9391 13.4261 12.2825 13.0827C12.9655 12.3996 13.6957 11.7492 14.453 11.1494C14.8338 10.8479 14.8979 10.2946 14.5963 9.91385C14.2947 9.53318 13.7415 9.46891 13.3607 9.77054C12.7797 10.2306 12.2139 10.7186 11.6706 11.2272L9.55233 9.10876C9.30042 8.85709 8.92163 8.7818 8.59291 8.91854C8.26407 9.05517 8.05005 9.37661 8.05087 9.73278L8.07127 18.6442C7.0178 18.8338 6.03844 19.3588 5.29821 20.1477C4.35474 21.1532 3.86395 22.5192 3.95178 23.8953L4.18797 27.5966C4.27347 28.937 4.91191 30.1222 5.87133 30.9349V31.3941C5.87133 31.7323 5.64217 32.0258 5.31416 32.1077L2.89878 32.7115C1.19197 33.1383 0 34.6649 0 36.4242V41.9647C0 42.532 0.461591 42.9935 1.02885 42.9935H6.13543C7.89102 46.4104 10.405 49.461 13.4322 51.842C16.3899 54.1683 19.8478 55.8607 23.4855 56.7692C23.504 56.8916 23.545 57.0114 23.6087 57.1216C23.7879 57.4319 24.1219 57.6247 24.4803 57.6247H35.4752C35.9639 57.6247 36.3944 57.2684 36.4698 56.7697C40.8909 55.6697 44.9436 53.4609 48.285 50.3291L50.4032 52.4474C50.6551 52.6991 51.0339 52.7744 51.3628 52.6376C51.6917 52.501 51.9056 52.1795 51.9048 51.8234L51.8846 42.9933H58.971C59.5384 42.9933 59.9999 42.5318 59.9999 41.9646V41.1947C59.9999 40.7089 59.6062 40.3152 59.1203 40.3152C58.6345 40.3152 58.2408 40.7089 58.2408 41.1947V41.2344H56.1212V37.2739C56.1212 36.788 55.7275 36.3943 55.2416 36.3943C54.7557 36.3943 54.362 36.788 54.362 37.2739V41.2344L47.7328 41.2318V37.2739C47.7328 36.788 47.3391 36.3943 46.8532 36.3943C46.3674 36.3943 45.9737 36.788 45.9737 37.2739V41.2318H43.8541V36.4242C43.8541 35.4737 44.4981 34.6487 45.4201 34.4183L47.8356 33.8145C48.792 33.5753 49.5004 32.8065 49.6806 31.8669C50.5488 32.1274 51.5038 32.1402 52.4144 31.8669C52.5945 32.8063 53.3029 33.5753 54.2593 33.8145L56.6747 34.4183C57.5968 34.6488 58.2409 35.4737 58.2409 36.4242V37.0902C58.2409 37.576 58.6346 37.9698 59.1204 37.9698ZM51.8611 18.6326C50.1677 18.352 48.4552 18.9689 47.3275 20.2191C44.549 15.6698 40.0469 12.3574 34.8913 11.0698C35.7732 9.61046 35.9318 7.88008 35.4383 6.35223C42.3642 7.906 48.3995 12.4302 51.8611 18.6326ZM29.9778 4.13411C32.1711 4.13411 33.9554 5.91844 33.9554 8.1117C33.9554 10.3048 32.1711 12.0892 29.9778 12.0892C27.7846 12.0892 26.0002 10.3048 26.0002 8.1117C26.0002 5.91844 27.7846 4.13411 29.9778 4.13411ZM6.58107 21.3514C7.20239 20.6892 8.04453 20.3245 8.95259 20.3245C9.86064 20.3245 10.7029 20.6891 11.3241 21.3514C11.9453 22.0136 12.2556 22.8773 12.1978 23.7834L11.9616 27.4847C11.8606 29.0679 10.5388 30.3079 8.95247 30.3079C7.3661 30.3079 6.04431 29.0679 5.94333 27.4847L5.70714 23.7834C5.64944 22.8772 5.95975 22.0135 6.58107 21.3514ZM1.75911 36.4242C1.75911 35.4737 2.40318 34.6487 3.32531 34.4183L5.74068 33.8145C6.69705 33.5753 7.40539 32.8065 7.58552 31.8669C8.45358 32.1276 9.4089 32.1402 10.3194 31.8669C10.4995 32.8063 11.208 33.5753 12.1644 33.8145L14.5796 34.4183C15.5018 34.6488 16.1458 35.4737 16.1458 36.4242V41.2345H14.0261V37.274C14.0261 36.7881 13.6323 36.3945 13.1465 36.3945C12.6608 36.3945 12.267 36.7881 12.267 37.274V41.2345H5.63795V37.274C5.63795 36.7881 5.24414 36.3945 4.7584 36.3945C4.27265 36.3945 3.87884 36.7881 3.87884 37.274V41.2345H1.75911V36.4242ZM25.784 55.8657L26.2315 55.0905C26.4744 54.6699 26.3303 54.1319 25.9096 53.889C25.4889 53.6463 24.951 53.7902 24.7081 54.211L24.1789 55.1278C17.4171 53.5194 11.5391 49.0613 8.13214 42.9936H13.7532C16.9116 47.1832 21.5502 49.9807 26.6862 50.8202C26.5561 51.2085 26.7125 51.6476 27.0809 51.8603C27.5014 52.103 28.0395 51.9591 28.2824 51.5384C28.5803 51.0225 29.5599 49.3259 29.9777 48.6021L31.0938 50.5351C31.1011 50.5486 31.1088 50.5619 31.1168 50.5749L34.1716 55.8658H25.784V55.8657ZM50.1408 49.6973L48.917 48.4734C48.5734 48.1301 48.0166 48.1301 47.6731 48.4734C44.3774 51.7692 40.2756 54.0613 35.7768 55.1281L33.2877 50.8167C37.4496 50.1303 41.3325 48.1432 44.3377 45.1382C44.6813 44.7947 44.6813 44.2377 44.3378 43.8944L43.4371 42.9936H50.1255L50.1408 49.6973ZM47.9662 31.3941C47.9662 31.7322 47.737 32.0258 47.4089 32.1077L44.9935 32.7115C43.2868 33.1382 42.0948 34.6649 42.0948 36.4241V41.2317H41.311C40.9553 41.2317 40.6344 41.4459 40.4984 41.7746C40.3622 42.1034 40.4374 42.4816 40.6889 42.7331L42.457 44.5011C39.6451 47.0573 36.1006 48.6977 32.3411 49.1776L30.8491 46.5933C30.6727 46.2876 30.3415 46.0901 29.9775 46.0901C29.6192 46.0901 29.2854 46.2828 29.1059 46.5932L27.6137 49.1777C23.1191 48.6049 18.9973 46.3957 16.0183 42.9935H16.8759C17.4431 42.9935 17.9047 42.5319 17.9047 41.9647V36.4242C17.9047 34.6649 16.7127 33.1382 15.0059 32.7116L12.5907 32.1079C12.2625 32.0259 12.0334 31.7325 12.0334 31.3942V30.935C12.9929 30.1224 13.6312 28.9372 13.7167 27.5967L13.9529 23.8954C14.0357 22.5982 13.6044 21.3102 12.7645 20.3245H18.6441C18.9999 20.3245 19.3206 20.1102 19.4567 19.7815C19.5929 19.4528 19.5176 19.0746 19.266 18.8229L17.4976 17.0547C20.0077 14.7671 23.055 13.2298 26.3805 12.5776C27.365 13.3721 28.6166 13.8483 29.9774 13.8483C31.338 13.8483 32.5895 13.3721 33.574 12.5777C38.9662 13.6394 43.6773 17.1135 46.3034 21.9661C46.0945 22.5813 46.004 23.2371 46.046 23.8954L46.2822 27.5967C46.3677 28.9371 47.0061 30.1223 47.9656 30.9349V31.3941H47.9662ZM48.0383 27.4847L47.8021 23.7834C47.7691 23.2668 47.8559 22.764 48.0516 22.3046C48.0654 22.2774 48.0777 22.2496 48.0886 22.2212C48.2334 21.9063 48.4304 21.6131 48.6759 21.3514C49.2972 20.6892 50.1394 20.3245 51.0475 20.3245C51.8262 20.3245 52.5565 20.5927 53.1405 21.0868C53.1551 21.1003 53.1701 21.1132 53.1854 21.1255C53.934 21.7822 54.3595 22.7367 54.2929 23.7835L54.0567 27.4848C53.9556 29.0679 52.6338 30.308 51.0475 30.308C49.461 30.3079 48.1394 29.0678 48.0383 27.4847Z" fill="#45F882"/>
</g>
<defs>
<clipPath id="clip0_5_955">
<rect width="60" height="60" fill="white"/>
</clipPath>
</defs>
</svg>
