<svg width="60" height="60" viewBox="0 0 60 60" fill="none" xmlns="http://www.w3.org/2000/svg">
<g clip-path="url(#clip0_5_948)">
<path d="M21.0322 30C21.0322 32.3954 21.965 34.6475 23.659 36.3414C24.0022 36.6846 24.5587 36.6846 24.9019 36.3414C25.2451 35.9981 25.2451 35.4416 24.9019 35.0985C23.54 33.7366 22.79 31.926 22.79 30C22.79 26.0242 26.0245 22.7897 30.0004 22.7897C33.9762 22.7897 37.2105 26.0242 37.2105 30C37.2105 33.9758 33.9762 37.2103 30.0004 37.2103C29.3497 37.2103 28.7051 37.1238 28.0842 36.9532C27.6161 36.8248 27.1324 37.0997 27.0037 37.5677C26.8751 38.0358 27.1502 38.5195 27.6183 38.6482C28.3908 38.8605 29.1922 38.9681 30.0002 38.9681C34.9452 38.9681 38.9682 34.9451 38.9682 30C38.9682 25.0549 34.9452 21.0319 30.0002 21.0319C25.0553 21.0319 21.0322 25.0549 21.0322 30Z" fill="#45F882"/>
<path d="M30.0003 34.1145C32.2691 34.1145 34.1149 32.2687 34.1149 29.9999C34.1149 27.7312 32.2691 25.8854 30.0003 25.8854C27.7316 25.8854 25.8857 27.7312 25.8857 29.9999C25.8857 32.2687 27.7316 34.1145 30.0003 34.1145ZM30.0003 27.6432C31.2999 27.6432 32.3571 28.7005 32.3571 29.9999C32.3571 31.2994 31.2999 32.3567 30.0003 32.3567C28.7008 32.3567 27.6436 31.2994 27.6436 29.9999C27.6436 28.7005 28.7008 27.6432 30.0003 27.6432Z" fill="#45F882"/>
<path d="M58.9718 25.8854H53.1701C52.3337 21.1269 50.085 16.8107 46.6372 13.3629C43.1895 9.91512 38.8732 7.66641 34.1147 6.83004V1.0282C34.1147 0.46125 33.6533 0 33.0865 0H26.9137C26.3468 0 25.8855 0.46125 25.8855 1.0282V6.83027C24.729 7.03453 23.5855 7.32621 22.4762 7.70039C22.0163 7.85555 21.7691 8.35418 21.9243 8.81402C22.0794 9.2741 22.5782 9.52113 23.038 9.36586C24.2864 8.9448 25.5819 8.6366 26.8889 8.44969C27.3218 8.38781 27.6434 8.01703 27.6434 7.57969V1.75781H32.357V7.5798C32.357 8.01715 32.6786 8.38793 33.1114 8.44981C42.6095 9.80848 50.1918 17.3907 51.5503 26.8888C51.6122 27.3217 51.9831 27.6432 52.4204 27.6432H58.2422V32.3569H52.4202C51.983 32.3569 51.6121 32.6784 51.5501 33.1113C50.1916 42.6093 42.6094 50.1915 33.1113 51.5502C32.6784 51.6121 32.3569 51.9829 32.3569 52.4202V58.2422H27.6432V52.4202C27.6432 51.9829 27.3217 51.6121 26.8888 51.5502C17.3909 50.1916 9.80848 42.6093 8.44981 33.1112C8.38793 32.6783 8.01715 32.3568 7.5798 32.3568H1.75781V27.6431H7.5798C8.01715 27.6431 8.38793 27.3216 8.44981 26.8887C9.39879 20.254 13.467 14.3208 19.3323 11.0173C19.7552 10.779 19.905 10.2431 19.6668 9.8202C19.4286 9.39727 18.8926 9.24762 18.4697 9.48574C15.3773 11.2274 12.6729 13.6921 10.6484 16.6132C8.72918 19.3825 7.41715 22.5737 6.83039 25.8853H1.0282C0.46125 25.8853 0 26.3466 0 26.9135V33.0863C0 33.6532 0.46125 34.1145 1.0282 34.1145H6.82992C7.66629 38.873 9.915 43.1892 13.3628 46.637C16.8105 50.0848 21.1268 52.3335 25.8853 53.1698V58.9716C25.8853 59.5385 26.3466 59.9998 26.9135 59.9998H33.0863C33.6532 59.9998 34.1145 59.5385 34.1145 58.9716V53.1698C38.873 52.3335 43.1892 50.0848 46.637 46.637C50.0848 43.1892 52.3335 38.873 53.1698 34.1145H58.9716C59.5385 34.1145 59.9998 33.6532 59.9998 33.0863V26.9135C60 26.3467 59.5386 25.8854 58.9718 25.8854Z" fill="#45F882"/>
<path d="M26.6056 11.6329C22.88 12.3172 19.4874 14.1022 16.7948 16.7948C14.1021 19.4874 12.3173 22.8799 11.6329 26.6056C11.5337 27.1449 11.9484 27.6433 12.4973 27.6433H17.7962V32.3569C16.0265 32.3569 14.2661 32.3569 12.4973 32.3569C11.9491 32.3569 11.5336 32.8545 11.6329 33.3946C12.3171 37.1202 14.1021 40.5128 16.7948 43.2054C19.4874 45.8981 22.8798 47.6829 26.6056 48.3673C27.1441 48.4667 27.6433 48.0524 27.6433 47.5029C27.6433 45.6582 27.6433 44.1086 27.6433 42.204H32.3569V47.5029C32.3569 48.0514 32.8547 48.4667 33.3946 48.3673C37.1202 47.6829 40.5127 45.8981 43.2053 43.2054C45.8979 40.5128 47.6829 37.1204 48.3673 33.3946C48.4662 32.8552 48.0519 32.3569 47.5028 32.3569C47.329 32.3569 44.8625 32.3569 42.2038 32.3569V27.6433H47.5028C48.0511 27.6433 48.4663 27.1457 48.3673 26.6056C47.6829 22.88 45.8979 19.4874 43.2053 16.7948C40.5127 14.1022 37.1202 12.3173 33.3945 11.6329C32.8558 11.5332 32.3569 11.9482 32.3569 12.4973V17.7963H27.6433C27.6433 16.6259 27.6433 13.2299 27.6433 12.4973C27.6433 11.9461 27.1425 11.5338 26.6056 11.6329ZM25.8855 13.5868V16.8166C21.5577 18.1639 18.164 21.5576 16.8167 25.8854H13.5869C15.0947 19.8671 19.8672 15.0946 25.8855 13.5868ZM13.5868 34.1146H16.8166C18.1639 38.4424 21.5576 41.8361 25.8853 43.1834V46.4132C19.8671 44.9054 15.0946 40.1329 13.5868 34.1146ZM34.1146 46.4132V43.1834C38.4423 41.8361 41.836 38.4424 43.1833 34.1146H46.4132C44.9053 40.1329 40.133 44.9054 34.1146 46.4132ZM33.0864 19.5541C33.6054 19.5541 34.0359 19.1675 34.1049 18.6671C35.3398 19.1131 36.4872 19.7576 37.5272 20.5907C37.9062 20.8942 38.4592 20.8331 38.7627 20.4542C39.0662 20.0753 39.0051 19.5222 38.6263 19.2188C37.2708 18.1329 35.7558 17.3267 34.1146 16.8165V13.5868C40.1329 15.0946 44.9053 19.8671 46.4132 25.8854H43.1833C42.8209 24.7226 42.3057 23.6143 41.6469 22.5821C41.3857 22.1729 40.8422 22.0527 40.4332 22.314C40.0241 22.5752 39.904 23.1186 40.1652 23.5277C40.6421 24.2747 41.0326 25.0676 41.3323 25.8951C40.8323 25.9645 40.4459 26.3947 40.4459 26.9134V33.0862C40.4459 33.6052 40.8324 34.0355 41.3326 34.1047C40.118 37.4659 37.4662 40.1178 34.1049 41.3326C34.0357 40.8323 33.6053 40.4458 33.0864 40.4458H26.9137C26.3946 40.4458 25.9643 40.8323 25.8952 41.3326C22.5339 40.1179 19.8819 37.4659 18.6673 34.1047C19.1676 34.0355 19.5541 33.6052 19.5541 33.0862V26.9134C19.5541 26.3944 19.1676 25.9641 18.6673 25.895C19.8819 22.5337 22.5339 19.8817 25.8952 18.6671C25.9643 19.1674 26.3946 19.5538 26.9137 19.5538H33.0864V19.5541Z" fill="#45F882"/>
</g>
<defs>
<clipPath id="clip0_5_948">
<rect width="60" height="60" fill="white"/>
</clipPath>
</defs>
</svg>
