<svg width="60" height="60" viewBox="0 0 60 60" fill="none" xmlns="http://www.w3.org/2000/svg">
<path d="M49.3077 48.5275H37.3552V45.8755C46.6598 42.8083 53.5245 34.0443 53.5245 23.5244C53.5245 10.6303 43.0572 0 30.0002 0C25.464 0 21.0604 1.2939 17.2652 3.74192C16.857 4.00518 16.7396 4.54964 17.0029 4.95772C17.2663 5.3658 17.8106 5.4833 18.2187 5.22004C20.162 3.96648 22.2782 3.04009 24.4922 2.46291C22.1195 4.74418 20.5143 8.17874 19.5357 11.3225H11.9632C12.8554 10.0123 13.8996 8.78817 15.0874 7.6704C15.4412 7.33749 15.4581 6.78095 15.1251 6.42716C14.7922 6.07349 14.2356 6.0566 13.8819 6.3894C9.18932 10.8051 6.47559 16.9431 6.47559 23.5244C6.47559 33.4312 12.5544 41.777 21.0652 45.2897H10.6925C10.1419 45.2897 9.6938 45.7377 9.6938 46.2885V52.3171C9.6938 52.8029 10.0876 53.1965 10.5733 53.1965C11.059 53.1965 11.4528 52.8029 11.4528 52.3171V47.0487H23.4053C23.956 47.0487 24.4041 46.6007 24.4041 46.05C24.4041 44.9374 24.4041 40.783 24.4041 40.573H35.5963V49.2876C35.5963 49.8383 36.0442 50.2864 36.595 50.2864H48.5476V58.2409H11.4528V56.4212C11.4528 55.9354 11.059 55.5417 10.5733 55.5417C10.0876 55.5417 9.6938 55.9354 9.6938 56.4212V59.0011C9.6938 59.5518 10.1417 59.9999 10.6925 59.9999H49.3078C49.8585 59.9999 50.3065 59.5519 50.3065 59.0011V49.5262C50.3064 48.9756 49.8585 48.5275 49.3077 48.5275ZM37.3552 44.0157V42.3806C38.6176 40.5548 39.6675 38.3025 40.466 35.7263H47.989C45.4444 39.4749 41.7543 42.4333 37.3552 44.0157ZM40.8666 29.9732C40.3879 29.8919 39.9334 30.2135 39.8518 30.6924C39.659 31.8225 39.4195 32.9182 39.1379 33.9675H30.8798V24.404H40.4345C40.42 25.1481 40.3871 25.8909 40.3361 26.6213C40.3023 27.106 40.6677 27.5261 41.1523 27.5599C41.6359 27.5952 42.057 27.2284 42.0909 26.7439C42.1447 25.9728 42.179 25.189 42.1938 24.404H51.7476C51.6076 27.8125 50.658 31.0756 49.0669 33.9675H40.9596C41.2012 33.0102 41.4106 32.0156 41.5858 30.9881C41.6673 30.5092 41.3454 30.0549 40.8666 29.9732ZM8.25285 24.4038H17.8066C17.8711 27.7646 18.3037 31.0211 19.0505 33.9674H10.9335C9.34247 31.0755 8.39286 27.8125 8.25285 24.4038ZM30.8797 1.83801C33.2321 2.2618 35.4564 4.37866 37.2197 7.9054C37.7473 8.96043 38.2146 10.1051 38.6183 11.3225H30.8795V1.83801H30.8797ZM39.1441 13.0815C39.9254 15.9985 40.3692 19.2519 40.4346 22.645H30.8797V13.0815H39.1441ZM51.748 22.6449H42.1939C42.1311 19.2757 41.7076 16.029 40.9603 13.0813H49.0927C50.6634 15.9417 51.6099 19.1911 51.748 22.6449ZM29.1207 22.6449H19.5657C19.6312 19.2518 20.0749 15.9984 20.8562 13.0813H29.1207V22.6449ZM19.5658 24.4038H29.1207V33.9674H20.862C20.0847 31.0567 19.6328 27.792 19.5658 24.4038ZM48.0153 11.3225H40.4646C39.4864 8.18038 37.8822 4.74723 35.5109 2.46572C40.6729 3.81743 45.0931 7.02181 48.0153 11.3225ZM22.7805 7.9054C24.544 4.37866 26.7681 2.2618 29.1206 1.83801V11.3225H21.3818C21.7857 10.1051 22.253 8.96043 22.7805 7.9054ZM10.885 13.0815H19.04C18.2927 16.029 17.8693 19.2759 17.8064 22.645H8.25191C8.38489 19.2393 9.28959 15.9889 10.885 13.0815ZM12.0112 35.7263H19.545C20.3401 38.289 21.3871 40.559 22.645 42.3805V44.0157C18.246 42.4333 14.5558 39.4749 12.0112 35.7263ZM23.6437 38.8141C23.3067 38.8141 23.0083 38.9818 22.8273 39.2382C22.2849 38.1668 21.8023 36.9888 21.3856 35.7263H29.1207V38.8141H23.6437ZM30.8797 38.8141V35.7263H38.6119C38.1927 36.9916 37.7094 38.1698 37.1711 39.2356C36.99 38.9807 36.6923 38.8141 36.3566 38.8141H30.8797Z" fill="#45F882"/>
<path d="M26.7623 50.1466C26.2766 50.1466 25.8828 50.5402 25.8828 51.0261C25.8828 51.5003 26.2581 51.8867 26.7277 51.9048L26.596 52.4316C26.4782 52.9029 26.7646 53.3804 27.2359 53.4982C27.707 53.6158 28.1846 53.3298 28.3025 52.8583L28.5406 51.9057H29.9654L29.8339 52.4316C29.7161 52.9029 30.0026 53.3804 30.4738 53.4982C30.9449 53.6158 31.4225 53.3298 31.5404 52.8583L31.7785 51.9057H33.238C33.7237 51.9057 34.1175 51.512 34.1175 51.0262C34.1175 50.5403 33.7237 50.1467 33.238 50.1467H32.2183L32.588 48.6679H33.238C33.7237 48.6679 34.1175 48.2742 34.1175 47.7884C34.1175 47.3026 33.7237 46.9089 33.238 46.9089H33.0277L33.1593 46.3828C33.2772 45.9116 32.9907 45.4341 32.5194 45.3162C32.0487 45.1989 31.5707 45.4849 31.4529 45.9561L31.2147 46.9089H29.79L29.9215 46.3828C30.0394 45.9116 29.7529 45.4341 29.2816 45.3162C28.8108 45.1989 28.3329 45.4849 28.2151 45.9561L27.9769 46.9089H26.7623C26.2766 46.9089 25.8828 47.3026 25.8828 47.7884C25.8828 48.2742 26.2766 48.6679 26.7623 48.6679H27.5371L27.1673 50.1467H26.7623V50.1466ZM29.3502 48.6676H30.775L30.4052 50.1465H28.9805L29.3502 48.6676Z" fill="#45F882"/>
</svg>
