<svg width="60" height="60" viewBox="0 0 60 60" fill="none" xmlns="http://www.w3.org/2000/svg">
<g clip-path="url(#clip0_5_959)">
<path d="M25.3118 31.8508H23.6628L24.2372 28.9786C24.3659 28.3368 23.8746 27.7388 23.2212 27.7388H19.4301C18.9379 27.7388 18.5105 28.089 18.4139 28.5718L17.7581 31.8507H15.4387L16.0133 28.978C16.1416 28.3363 15.6503 27.7386 14.9971 27.7386H11.206C10.7138 27.7386 10.2864 28.0889 10.1899 28.5716L9.52694 31.886C9.16213 31.993 8.89564 32.3301 8.89564 32.7295C8.89564 33.2149 9.28917 33.6085 9.77457 33.6085H10.1255C10.6177 33.6085 11.0451 33.2582 11.1417 32.7755L11.7975 29.4965H14.1168L13.5423 32.3692C13.4139 33.0122 13.9066 33.6085 14.5585 33.6085H18.3497C18.8419 33.6085 19.2693 33.2582 19.3658 32.7755L20.0216 29.4965H22.3411L21.7666 32.3687C21.638 33.0105 22.1293 33.6085 22.7826 33.6085H24.5902V35.9626H21.8973C21.4051 35.9626 20.9777 36.3128 20.8811 36.7955L20.1216 40.593C19.9933 41.2347 20.4845 41.8324 21.1378 41.8324H24.5902V44.1866H20.2524C19.7602 44.1866 19.3328 44.5369 19.2362 45.0196L18.5804 48.2985H16.261L16.8356 45.4259C16.9639 44.7841 16.4727 44.1865 15.8194 44.1865H12.0284C11.5362 44.1865 11.1088 44.5367 11.0122 45.0195L10.3564 48.2984H8.03723L8.61181 45.4258C8.74013 44.784 8.24887 44.1864 7.59565 44.1864H5.788V41.8321H8.48091C8.9731 41.8321 9.4005 41.4818 9.49706 40.9991L10.2564 37.2021C10.385 36.5602 9.89375 35.9623 9.24041 35.9623H5.788V33.6007C6.21914 33.5445 6.55196 33.1757 6.55196 32.7292C6.55196 32.2438 6.15844 31.8503 5.67304 31.8503H5.06647C4.49517 31.8503 4.03027 32.3151 4.03027 32.8866V36.6839C4.03027 37.2552 4.49517 37.7201 5.06647 37.7201H8.3602L7.88933 40.0742H5.06647C4.49517 40.0742 4.03027 40.5391 4.03027 41.1105V44.9078C4.03027 45.4792 4.49517 45.9441 5.06647 45.9441H6.71544L6.14098 48.8166C6.01266 49.4585 6.50392 50.056 7.15713 50.056H10.9482C11.4404 50.056 11.8678 49.7058 11.9644 49.2231L12.6202 45.9441H14.9395L14.365 48.8166C14.2367 49.4585 14.7279 50.056 15.3812 50.056H19.1722C19.6644 50.056 20.0918 49.7058 20.1884 49.2231L20.8442 45.9441H25.3119C25.8834 45.9441 26.3482 45.4792 26.3482 44.9078V41.1105C26.3482 40.5391 25.8834 40.0742 25.3119 40.0742H22.0182L22.4891 37.7201H25.3119C25.8834 37.7201 26.3482 37.2552 26.3482 36.6839V32.887C26.3481 32.3156 25.8832 31.8508 25.3118 31.8508Z" fill="#45F882"/>
<path d="M12.9136 41.8326H16.7047C17.1969 41.8326 17.6243 41.4823 17.7208 40.9996L18.4803 37.202C18.6088 36.559 18.1161 35.9628 17.4642 35.9628H13.673C13.1807 35.9628 12.7534 36.313 12.6568 36.7958L11.8974 40.5932C11.7691 41.235 12.2604 41.8326 12.9136 41.8326ZM14.2645 37.7206H16.584L16.1131 40.0747H13.7937L14.2645 37.7206Z" fill="#45F882"/>
<path d="M55.2226 11.408C54.2267 10.4121 52.6064 10.412 51.6104 11.408C51.4657 11.5527 51.3406 11.7118 51.2361 11.8819L48.531 11.3409L48.9604 9.2332C49.7243 9.3259 50.5073 9.07453 51.0766 8.50499C52.0725 7.50911 52.0725 5.88872 51.0766 4.89284C50.0808 3.89685 48.4604 3.89697 47.4644 4.89284C46.8877 5.46954 46.645 6.25576 46.7363 7.00871L44.5876 7.44594L44.0535 4.75304C44.2349 4.64604 44.4058 4.51467 44.5616 4.35893C45.5575 3.36293 45.5574 1.74255 44.5616 0.746787C43.5657 -0.249092 41.9453 -0.249092 40.9495 0.746787C40.0492 1.64704 39.9628 3.05765 40.6902 4.05599L40.1638 4.84714C39.895 5.25133 40.0045 5.79685 40.4087 6.06568C40.8137 6.33522 41.3591 6.224 41.6273 5.82075L42.1509 5.03371C42.2083 5.04765 42.2661 5.05949 42.3242 5.06933L43.0353 8.65417C43.0808 8.88351 43.2159 9.08531 43.4106 9.21492C43.6049 9.34418 43.8431 9.39118 44.0727 9.34442L47.2766 8.69237L46.6326 11.8539C46.5355 12.3305 46.8444 12.7958 47.3214 12.8913L50.892 13.6054C50.9027 13.6756 50.9163 13.7451 50.9327 13.8137L45.871 17.1883C45.6567 17.331 45.7 17.3316 43.94 19.0787L36.8909 12.0295C38.6451 10.2619 38.6392 10.3119 38.7818 10.0976L39.2997 9.31922C39.5685 8.91503 39.4589 8.36951 39.0548 8.10056C38.6509 7.83173 38.1051 7.94142 37.8362 8.34537L37.3336 9.10078L35.1197 11.3146C34.7246 11.7093 34.7242 12.3488 35.1194 12.744L35.3852 13.0098H34.243C33.6762 13.0098 33.2149 13.471 33.2149 14.0379V14.7694C33.2149 16.0665 32.1596 17.1218 30.8625 17.1218H28.075C27.508 17.1218 27.0469 17.5831 27.0469 18.1499V24.9966C27.0469 25.5636 27.5081 26.0247 28.075 26.0247H33.2148V51.7706H28.075C27.508 51.7706 27.0469 52.2319 27.0469 52.7987V58.9718C27.0469 59.5387 27.5081 59.9999 28.075 59.9999H48.3366C48.9035 59.9999 49.3647 59.5387 49.3647 58.9718V52.7987C49.3647 52.2319 48.9035 51.7706 48.3366 51.7706H43.1967V44.0305C43.1967 43.5451 42.8032 43.1516 42.3178 43.1516C41.8324 43.1516 41.4388 43.5451 41.4388 44.0305V52.5004C41.4388 53.0672 41.9001 53.5285 42.4669 53.5285H47.6068V58.2421H28.8047V53.5285H33.9447C34.5115 53.5285 34.9728 53.0672 34.9728 52.5004V25.295C34.9728 24.7282 34.5115 24.2669 33.9447 24.2669H28.8047V18.8799H30.8625C33.1289 18.8799 34.9728 17.0361 34.9728 14.7696L37.1432 14.7681L41.439 19.0638V39.9288C41.439 40.4142 41.8325 40.8078 42.3179 40.8078C42.8033 40.8078 43.1968 40.4142 43.1968 39.9288V20.8216L43.2255 20.8503C43.6195 21.2443 44.2605 21.2443 44.6545 20.8503L46.8692 18.6357L51.9087 15.276C52.3558 15.6034 52.8862 15.7671 53.4166 15.7671C54.8203 15.7671 55.9707 14.6346 55.9707 13.2141C55.9706 12.5319 55.7049 11.8905 55.2226 11.408ZM42.1922 1.98994C42.5028 1.67938 43.008 1.6795 43.3184 1.98994C43.6289 2.30037 43.6289 2.80569 43.3184 3.11613C43.0079 3.42657 42.5027 3.42657 42.1922 3.11613C41.8818 2.80569 41.8818 2.30037 42.1922 1.98994ZM48.7074 6.13588C49.0176 5.82556 49.5231 5.82521 49.8336 6.13588C50.1442 6.44631 50.1442 6.95163 49.8336 7.26207C49.5541 7.54157 49.1187 7.56735 48.813 7.3509C48.7393 7.2991 48.6732 7.23406 48.6192 7.1573C48.4042 6.85519 48.425 6.41819 48.7074 6.13588ZM53.9795 13.7772C53.669 14.0878 53.1638 14.0877 52.8534 13.7772C52.5408 13.4648 52.5435 12.9609 52.8534 12.651C53.1638 12.3406 53.669 12.3406 53.9795 12.651C54.2907 12.9622 54.2908 13.466 53.9795 13.7772Z" fill="#45F882"/>
<path d="M43.318 16.2049C43.6612 16.5482 44.2177 16.5482 44.5609 16.2049C44.9041 15.8617 44.9041 15.3051 44.5609 14.962L41.0072 11.4083C40.6639 11.0651 40.1074 11.0651 39.7643 11.4083C39.421 11.7516 39.421 12.3081 39.7643 12.6512L43.318 16.2049Z" fill="#45F882"/>
</g>
<defs>
<clipPath id="clip0_5_959">
<rect width="60" height="60" fill="white"/>
</clipPath>
</defs>
</svg>
