<svg width="140" height="40" viewBox="0 0 140 40" fill="none" xmlns="http://www.w3.org/2000/svg">
<path d="M48.5273 35L51.5156 4.0625H62.0098L64.9453 35H59.0918L58.6523 30.0078H54.9258L54.5391 35H48.5273ZM55.3652 25.0684H58.1777L56.8242 9.33594H56.543L55.3652 25.0684ZM66.8438 35V4.0625H73.0312V29.7266H79.3945V35H66.8438ZM83.2266 35L79.4121 4.04492H85.3008L87.5684 25.1035L89.5898 4.04492H95.4785L91.6641 35H83.2266ZM97.0078 35V4.0625H102.984V35H97.0078ZM105.445 35V4.0625H113.953C116.18 4.0625 117.855 4.68359 118.98 5.92578C120.105 7.15625 120.668 8.96094 120.668 11.3398V25.8242C120.668 28.7539 120.152 31.0156 119.121 32.6094C118.102 34.2031 116.309 35 113.742 35H105.445ZM111.668 29.5332H112.74C113.877 29.5332 114.445 28.9824 114.445 27.8809V11.9199C114.445 10.8887 114.305 10.2266 114.023 9.93359C113.754 9.62891 113.197 9.47656 112.354 9.47656H111.668V29.5332ZM130.582 35.2812C128.109 35.2812 126.217 34.5371 124.904 33.0488C123.604 31.5488 122.953 29.3867 122.953 26.5625V11.8672C122.953 9.21875 123.598 7.20898 124.887 5.83789C126.188 4.4668 128.086 3.78125 130.582 3.78125C133.078 3.78125 134.971 4.4668 136.26 5.83789C137.561 7.20898 138.211 9.21875 138.211 11.8672V26.5625C138.211 29.3867 137.555 31.5488 136.242 33.0488C134.941 34.5371 133.055 35.2812 130.582 35.2812ZM130.635 29.5859C131.572 29.5859 132.041 28.6777 132.041 26.8613V11.7617C132.041 10.2383 131.584 9.47656 130.67 9.47656C129.639 9.47656 129.123 10.2559 129.123 11.8145V26.8965C129.123 27.8574 129.24 28.5488 129.475 28.9707C129.709 29.3809 130.096 29.5859 130.635 29.5859Z" fill="white"/>
<g clip-path="url(#clip0_5_575)">
<path d="M28.8801 12.9961L21.825 19.9993L31.9952 30.0947H11.6547L1.79688 40.0001H28.6379C31.8864 40.0001 34.6154 38.7354 36.5775 36.786C37.6674 35.7042 38.5256 34.415 39.1065 33.0231C39.6891 31.6207 40.0015 30.1086 40.0015 28.579C40.0015 25.8196 38.9731 23.0096 36.6775 20.7309L28.8801 12.9961Z" fill="#45F882"/>
<path d="M11.1197 9.90549H28.345L38.2046 0H11.3654C8.11162 0 5.38435 1.26301 3.42401 3.20892C2.33415 4.29598 1.47596 5.58512 0.895051 6.97705C0.31239 8.37246 0 9.88633 0 11.4194C0 14.1753 1.02843 16.9853 3.32573 19.2657L11.1197 27.004L18.1748 20.0009L8.00456 9.90723H11.1197V9.90549Z" fill="white"/>
</g>
<defs>
<clipPath id="clip0_5_575">
<rect width="40" height="40" fill="white"/>
</clipPath>
</defs>
</svg>
