<svg width="40" height="40" viewBox="0 0 40 40" fill="none" xmlns="http://www.w3.org/2000/svg">
<g clip-path="url(#clip0_5_577)">
<path d="M28.8801 12.9961L21.825 19.9993L31.9952 30.0947H11.6547L1.79688 40.0001H28.6379C31.8864 40.0001 34.6154 38.7354 36.5775 36.786C37.6674 35.7042 38.5256 34.415 39.1065 33.0231C39.6891 31.6207 40.0015 30.1086 40.0015 28.579C40.0015 25.8196 38.9731 23.0096 36.6775 20.7309L28.8801 12.9961Z" fill="#45F882"/>
<path d="M11.1197 9.90549H28.345L38.2046 0H11.3654C8.11162 0 5.38435 1.26301 3.42401 3.20892C2.33415 4.29598 1.47596 5.58512 0.895051 6.97705C0.31239 8.37246 0 9.88633 0 11.4194C0 14.1753 1.02843 16.9853 3.32573 19.2657L11.1197 27.004L18.1748 20.0009L8.00456 9.90723H11.1197V9.90549Z" fill="white"/>
</g>
<defs>
<clipPath id="clip0_5_577">
<rect width="40" height="40" fill="white"/>
</clipPath>
</defs>
</svg>
